<svg width="28" height="28" viewBox="0 0 28 28" fill="none" xmlns="http://www.w3.org/2000/svg">
<g id="4">
<circle id="BG" cx="14.0987" cy="13.5855" r="13.5855" fill="#F9F9F7" fill-opacity="0.12"/>
<g id="logo-github 1">
<g id="Group">
<path id="Vector" fill-rule="evenodd" clip-rule="evenodd" d="M14.7063 7.01611C11.2216 7.01611 8.41821 9.81954 8.41821 13.3042C8.41821 16.0814 10.226 18.4394 12.7151 19.2778C13.0295 19.3302 13.1343 19.1468 13.1343 18.9634C13.1343 18.8062 13.1343 18.4132 13.1343 17.8892C11.3788 18.2822 11.012 17.0508 11.012 17.0508C10.7238 16.3172 10.3046 16.1338 10.3046 16.1338C9.72822 15.7408 10.357 15.7408 10.357 15.7408C10.9858 15.7932 11.3264 16.3958 11.3264 16.3958C11.8766 17.3652 12.7937 17.077 13.1605 16.9198C13.2129 16.5006 13.3701 16.2386 13.5535 16.0814C12.1648 15.9242 10.6976 15.374 10.6976 12.9636C10.6976 12.2824 10.9334 11.706 11.3526 11.2868C11.3002 11.1295 11.0644 10.5007 11.405 9.60994C11.405 9.60994 11.929 9.45273 13.1343 10.2649C13.6321 10.1339 14.1823 10.0553 14.7063 10.0553C15.2303 10.0553 15.7805 10.1339 16.2783 10.2649C17.4835 9.45273 18.0075 9.60994 18.0075 9.60994C18.3481 10.4745 18.1385 11.1033 18.0599 11.2868C18.4529 11.7322 18.7149 12.2824 18.7149 12.9636C18.7149 15.374 17.2477 15.898 15.8329 16.0552C16.0687 16.2386 16.2521 16.6316 16.2521 17.208C16.2521 18.0464 16.2521 18.7276 16.2521 18.9372C16.2521 19.0944 16.3569 19.304 16.6975 19.2516C19.1865 18.4394 20.9943 16.0814 20.9943 13.3042C20.9943 9.81954 18.1909 7.01611 14.7063 7.01611Z" fill="white"/>
</g>
</g>
</g>
</svg>
